REM DIRINDEX 1\2,1\3,1\4
REM DIRNAME cjc153,folder01,folder02,folder03
TITLE ""
FILE "Track35.mp3" MP3
  TRACK 01 AUDIO
    TITLE "0:"
    INDEX 01 00:00:00
  TRACK 02 AUDIO
    TITLE "4:cjc153_2161"
    INDEX 01 00:00:07
  TRACK 03 AUDIO
    TITLE "0:"
    INDEX 01 00:02:12
  TRACK 04 AUDIO
    TITLE "2:cjc153_2162"
    INDEX 01 00:02:67
  TRACK 05 AUDIO
    TITLE "0:"
    INDEX 01 00:03:66
  TRACK 06 AUDIO
    TITLE "3:cjc153_2163"
    INDEX 01 00:04:23
  TRACK 07 AUDIO
    TITLE "0:"
    INDEX 01 00:05:28
  TRACK 08 AUDIO
    TITLE "2:cjc153_2164"
    INDEX 01 00:05:73
  TRACK 09 AUDIO
    TITLE "0:"
    INDEX 01 00:07:00
  TRACK 10 AUDIO
    TITLE "3:cjc153_2165"
    INDEX 01 00:07:33
  TRACK 11 AUDIO
    TITLE "0:"
    INDEX 01 00:08:44
  TRACK 12 AUDIO
    TITLE "2:cjc153_2166"
    INDEX 01 00:09:12
  TRACK 13 AUDIO
    TITLE "0:"
    INDEX 01 00:10:18
  TRACK 14 AUDIO
    TITLE "3:cjc153_2167"
    INDEX 01 00:10:47
  TRACK 15 AUDIO
    TITLE "0:"
    INDEX 01 00:11:58
  TRACK 16 AUDIO
    TITLE "2:cjc153_2168"
    INDEX 01 00:12:18
  TRACK 17 AUDIO
    TITLE "0:"
    INDEX 01 00:13:24
  TRACK 18 AUDIO
    TITLE "3:cjc153_2169"
    INDEX 01 00:13:57
  TRACK 19 AUDIO
    TITLE "0:"
    INDEX 01 00:14:70
  TRACK 20 AUDIO
    TITLE "2:cjc153_2170"
    INDEX 01 00:15:40
  TRACK 21 AUDIO
    TITLE "0:"
    INDEX 01 00:16:51
  TRACK 22 AUDIO
    TITLE "3:cjc153_2171"
    INDEX 01 00:17:08
  TRACK 23 AUDIO
    TITLE "0:"
    INDEX 01 00:18:23
  TRACK 24 AUDIO
    TITLE "2:cjc153_2172"
    INDEX 01 00:18:70
  TRACK 25 AUDIO
    TITLE "0:"
    INDEX 01 00:20:14
  TRACK 26 AUDIO
    TITLE "3:cjc153_2173"
    INDEX 01 00:20:45
  TRACK 27 AUDIO
    TITLE "0:"
    INDEX 01 00:21:66
  TRACK 28 AUDIO
    TITLE "2:cjc153_2174"
    INDEX 01 00:22:34
  TRACK 29 AUDIO
    TITLE "0:"
    INDEX 01 00:23:34
  TRACK 30 AUDIO
    TITLE "3:cjc153_2175"
    INDEX 01 00:23:67
  TRACK 31 AUDIO
    TITLE "0:"
    INDEX 01 00:25:03
  TRACK 32 AUDIO
    TITLE "2:cjc153_2176"
    INDEX 01 00:25:48
  TRACK 33 AUDIO
    TITLE "0:"
    INDEX 01 00:26:46
  TRACK 34 AUDIO
    TITLE "3:cjc153_2177"
    INDEX 01 00:27:02
  TRACK 35 AUDIO
    TITLE "0:"
    INDEX 01 00:28:04
  TRACK 36 AUDIO
    TITLE "2:cjc153_2178"
    INDEX 01 00:28:51
  TRACK 37 AUDIO
    TITLE "0:"
    INDEX 01 00:29:48
  TRACK 38 AUDIO
    TITLE "3:cjc153_2179"
    INDEX 01 00:30:05
  TRACK 39 AUDIO
    TITLE "0:"
    INDEX 01 00:31:08
  TRACK 40 AUDIO
    TITLE "2:cjc153_2180"
    INDEX 01 00:31:53
  TRACK 41 AUDIO
    TITLE "0:"
    INDEX 01 00:32:70
  TRACK 42 AUDIO
    TITLE "3:cjc153_2181"
    INDEX 01 00:33:24
  TRACK 43 AUDIO
    TITLE "0:"
    INDEX 01 00:34:47
  TRACK 44 AUDIO
    TITLE "2:cjc153_2182"
    INDEX 01 00:35:15
  TRACK 45 AUDIO
    TITLE "0:"
    INDEX 01 00:36:21
  TRACK 46 AUDIO
    TITLE "3:cjc153_2183"
    INDEX 01 00:36:54
  TRACK 47 AUDIO
    TITLE "0:"
    INDEX 01 00:37:67
  TRACK 48 AUDIO
    TITLE "2:cjc153_2184"
    INDEX 01 00:38:37
  TRACK 49 AUDIO
    TITLE "0:"
    INDEX 01 00:39:62
  TRACK 50 AUDIO
    TITLE "3:cjc153_2185"
    INDEX 01 00:40:17
  TRACK 51 AUDIO
    TITLE "0:"
    INDEX 01 00:41:45
  TRACK 52 AUDIO
    TITLE "2:cjc153_2186"
    INDEX 01 00:42:16
  TRACK 53 AUDIO
    TITLE "0:"
    INDEX 01 00:43:35
  TRACK 54 AUDIO
    TITLE "3:cjc153_2187"
    INDEX 01 00:43:68
  TRACK 55 AUDIO
    TITLE "0:"
    INDEX 01 00:45:24
  TRACK 56 AUDIO
    TITLE "2:cjc153_2188"
    INDEX 01 00:45:71
  TRACK 57 AUDIO
    TITLE "0:"
    INDEX 01 00:47:17
  TRACK 58 AUDIO
    TITLE "3:cjc153_2189"
    INDEX 01 00:47:50
  TRACK 59 AUDIO
    TITLE "0:"
    INDEX 01 00:49:08
  TRACK 60 AUDIO
    TITLE "2:cjc153_2190"
    INDEX 01 00:49:53
  TRACK 61 AUDIO
    TITLE "0:"
    INDEX 01 00:50:70
  TRACK 62 AUDIO
    TITLE "3:cjc153_2191"
    INDEX 01 00:51:30
  TRACK 63 AUDIO
    TITLE "0:"
    INDEX 01 00:52:57
  TRACK 64 AUDIO
    TITLE "2:cjc153_2192"
    INDEX 01 00:53:25
  TRACK 65 AUDIO
    TITLE "0:"
    INDEX 01 00:54:27
  TRACK 66 AUDIO
    TITLE "3:cjc153_2193"
    INDEX 01 00:54:60
  TRACK 67 AUDIO
    TITLE "0:"
    INDEX 01 00:55:71
  TRACK 68 AUDIO
    TITLE "2:cjc153_2194"
    INDEX 01 00:56:41
  TRACK 69 AUDIO
    TITLE "0:"
    INDEX 01 00:57:72
  TRACK 70 AUDIO
    TITLE "3:cjc153_2195"
    INDEX 01 00:58:28
  TRACK 71 AUDIO
    TITLE "0:"
    INDEX 01 00:59:67
  TRACK 72 AUDIO
    TITLE "2:cjc153_2196"
    INDEX 01 01:00:35
  TRACK 73 AUDIO
    TITLE "0:"
    INDEX 01 01:01:60
  TRACK 74 AUDIO
    TITLE "3:cjc153_2197"
    INDEX 01 01:02:18
  TRACK 75 AUDIO
    TITLE "0:"
    INDEX 01 01:03:47
  TRACK 76 AUDIO
    TITLE "2:cjc153_2198"
    INDEX 01 01:04:13
  TRACK 77 AUDIO
    TITLE "0:"
    INDEX 01 01:05:30
  TRACK 78 AUDIO
    TITLE "3:cjc153_2199"
    INDEX 01 01:05:62
  TRACK 79 AUDIO
    TITLE "0:"
    INDEX 01 01:07:12
  TRACK 80 AUDIO
    TITLE "2:cjc153_2200"
    INDEX 01 01:07:57
  TRACK 81 AUDIO
    TITLE "0:"
    INDEX 01 01:08:54
  TRACK 82 AUDIO
    TITLE "3:cjc153_2201"
    INDEX 01 01:09:12
  TRACK 83 AUDIO
    TITLE "0:"
    INDEX 01 01:10:16
  TRACK 84 AUDIO
    TITLE "2:cjc153_2202"
    INDEX 01 01:10:63
  TRACK 85 AUDIO
    TITLE "0:"
    INDEX 01 01:12:05
  TRACK 86 AUDIO
    TITLE "3:cjc153_2203"
    INDEX 01 01:12:38
  TRACK 87 AUDIO
    TITLE "0:"
    INDEX 01 01:13:61
  TRACK 88 AUDIO
    TITLE "2:cjc153_2204"
    INDEX 01 01:14:33
  TRACK 89 AUDIO
    TITLE "0:"
    INDEX 01 01:15:35
  TRACK 90 AUDIO
    TITLE "3:cjc153_2205"
    INDEX 01 01:15:68
  TRACK 91 AUDIO
    TITLE "0:"
    INDEX 01 01:17:02
  TRACK 92 AUDIO
    TITLE "2:cjc153_2206"
    INDEX 01 01:17:47
  TRACK 93 AUDIO
    TITLE "0:"
    INDEX 01 01:19:19
  TRACK 94 AUDIO
    TITLE "3:cjc153_2207"
    INDEX 01 01:19:50
  TRACK 95 AUDIO
    TITLE "0:"
    INDEX 01 01:21:25
  TRACK 96 AUDIO
    TITLE "2:cjc153_2208"
    INDEX 01 01:21:70
  TRACK 97 AUDIO
    TITLE "0:"
    INDEX 01 01:23:16
  TRACK 98 AUDIO
    TITLE "3:cjc153_2209"
    INDEX 01 01:23:44
  TRACK 99 AUDIO
    TITLE "0:"
    INDEX 01 01:24:67
  TRACK 100 AUDIO
    TITLE "2:cjc153_2210"
    INDEX 01 01:25:43
  TRACK 101 AUDIO
    TITLE "0:"
    INDEX 01 01:26:56
  TRACK 102 AUDIO
    TITLE "3:cjc153_2211"
    INDEX 01 01:27:12
  TRACK 103 AUDIO
    TITLE "0:"
    INDEX 01 01:28:27
  TRACK 104 AUDIO
    TITLE "2:cjc153_2212"
    INDEX 01 01:28:71
  TRACK 105 AUDIO
    TITLE "0:"
    INDEX 01 01:30:07
  TRACK 106 AUDIO
    TITLE "3:cjc153_2213"
    INDEX 01 01:30:40
  TRACK 107 AUDIO
    TITLE "0:"
    INDEX 01 01:31:63
  TRACK 108 AUDIO
    TITLE "2:cjc153_2214"
    INDEX 01 01:32:33
  TRACK 109 AUDIO
    TITLE "0:"
    INDEX 01 01:33:34
  TRACK 110 AUDIO
    TITLE "3:cjc153_2215"
    INDEX 01 01:33:70
  TRACK 111 AUDIO
    TITLE "0:"
    INDEX 01 01:35:02
  TRACK 112 AUDIO
    TITLE "2:cjc153_2216"
    INDEX 01 01:35:45
  TRACK 113 AUDIO
    TITLE "0:"
    INDEX 01 01:36:45
  TRACK 114 AUDIO
    TITLE "3:cjc153_2217"
    INDEX 01 01:37:03
  TRACK 115 AUDIO
    TITLE "0:"
    INDEX 01 01:38:10
  TRACK 116 AUDIO
    TITLE "2:cjc153_2218"
    INDEX 01 01:38:47
  TRACK 117 AUDIO
    TITLE "0:"
    INDEX 01 01:39:55
  TRACK 118 AUDIO
    TITLE "3:cjc153_2219"
    INDEX 01 01:40:13
  TRACK 119 AUDIO
    TITLE "0:"
    INDEX 01 01:41:24
  TRACK 120 AUDIO
    TITLE "2:cjc153_2220"
    INDEX 01 01:41:67
  TRACK 121 AUDIO
    TITLE "0:"
    INDEX 01 01:43:05
  TRACK 122 AUDIO
    TITLE "3:cjc153_2221"
    INDEX 01 01:43:39
  TRACK 123 AUDIO
    TITLE "0:"
    INDEX 01 01:44:60
  TRACK 124 AUDIO
    TITLE "2:cjc153_2222"
    INDEX 01 01:45:30
  TRACK 125 AUDIO
    TITLE "0:"
    INDEX 01 01:46:29
  TRACK 126 AUDIO
    TITLE "3:cjc153_2223"
    INDEX 01 01:46:61
  TRACK 127 AUDIO
    TITLE "0:"
    INDEX 01 01:47:64
  TRACK 128 AUDIO
    TITLE "2:cjc153_2224"
    INDEX 01 01:48:36
  TRACK 129 AUDIO
    TITLE "0:"
    INDEX 01 01:49:47
  TRACK 130 AUDIO
    TITLE "3:cjc153_2225"
    INDEX 01 01:50:07
  TRACK 131 AUDIO
    TITLE "0:"
    INDEX 01 01:51:23
  TRACK 132 AUDIO
    TITLE "2:cjc153_2226"
    INDEX 01 01:51:68
  TRACK 133 AUDIO
    TITLE "0:"
    INDEX 01 01:53:21
  TRACK 134 AUDIO
    TITLE "3:cjc153_2227"
    INDEX 01 01:53:55
  TRACK 135 AUDIO
    TITLE "0:"
    INDEX 01 01:55:11
  TRACK 136 AUDIO
    TITLE "2:cjc153_2228"
    INDEX 01 01:55:58
  TRACK 137 AUDIO
    TITLE "0:"
    INDEX 01 01:56:67
  TRACK 138 AUDIO
    TITLE "3:cjc153_2229"
    INDEX 01 01:57:25
  TRACK 139 AUDIO
    TITLE "0:"
    INDEX 01 01:58:50
  TRACK 140 AUDIO
    TITLE "2:cjc153_2230"
    INDEX 01 01:59:20
  TRACK 141 AUDIO
    TITLE "0:"
    INDEX 01 02:00:39
  TRACK 142 AUDIO
    TITLE "3:cjc153_2231"
    INDEX 01 02:00:71
  TRACK 143 AUDIO
    TITLE "0:"
    INDEX 01 02:02:20
  TRACK 144 AUDIO
    TITLE "2:cjc153_2232"
    INDEX 01 02:02:66
  TRACK 145 AUDIO
    TITLE "0:"
    INDEX 01 02:03:71
  TRACK 146 AUDIO
    TITLE "3:cjc153_2233"
    INDEX 01 02:04:29
  TRACK 147 AUDIO
    TITLE "0:"
    INDEX 01 02:05:42
  TRACK 148 AUDIO
    TITLE "2:cjc153_2234"
    INDEX 01 02:06:12
  TRACK 149 AUDIO
    TITLE "0:"
    INDEX 01 02:07:20
  TRACK 150 AUDIO
    TITLE "3:cjc153_2235"
    INDEX 01 02:07:57
  TRACK 151 AUDIO
    TITLE "0:"
    INDEX 01 02:09:03
  TRACK 152 AUDIO
    TITLE "2:cjc153_2236"
    INDEX 01 02:09:48
  TRACK 153 AUDIO
    TITLE "0:"
    INDEX 01 02:10:61
  TRACK 154 AUDIO
    TITLE "3:cjc153_2237"
    INDEX 01 02:11:19
  TRACK 155 AUDIO
    TITLE "0:"
    INDEX 01 02:12:36
  TRACK 156 AUDIO
    TITLE "2:cjc153_2238"
    INDEX 01 02:13:09
  TRACK 157 AUDIO
    TITLE "0:"
    INDEX 01 02:14:22
  TRACK 158 AUDIO
    TITLE "3:cjc153_2239"
    INDEX 01 02:14:55
  TRACK 159 AUDIO
    TITLE "0:"
    INDEX 01 02:16:03
  TRACK 160 AUDIO
    TITLE "2:cjc153_2240"
    INDEX 01 02:16:42
  TRACK 161 AUDIO
    TITLE "0:"
    INDEX 01 02:17:55
  TRACK 162 AUDIO
    TITLE "3:cjc153_2241"
    INDEX 01 02:18:12
  TRACK 163 AUDIO
    TITLE "0:"
    INDEX 01 02:19:29
  TRACK 164 AUDIO
    TITLE "2:cjc153_2242"
    INDEX 01 02:20:01
  TRACK 165 AUDIO
    TITLE "0:"
    INDEX 01 02:21:28
  TRACK 166 AUDIO
    TITLE "3:cjc153_2243"
    INDEX 01 02:21:63
  TRACK 167 AUDIO
    TITLE "0:"
    INDEX 01 02:23:19
  TRACK 168 AUDIO
    TITLE "2:cjc153_2244"
    INDEX 01 02:23:66
  TRACK 169 AUDIO
    TITLE "0:"
    INDEX 01 02:25:02
  TRACK 170 AUDIO
    TITLE "3:cjc153_2245"
    INDEX 01 02:25:35
  TRACK 171 AUDIO
    TITLE "0:"
    INDEX 01 02:26:56
  TRACK 172 AUDIO
    TITLE "2:cjc153_2246"
    INDEX 01 02:27:24
  TRACK 173 AUDIO
    TITLE "0:"
    INDEX 01 02:28:49
  TRACK 174 AUDIO
    TITLE "3:cjc153_2247"
    INDEX 01 02:29:06
  TRACK 175 AUDIO
    TITLE "0:"
    INDEX 01 02:30:40
  TRACK 176 AUDIO
    TITLE "2:cjc153_2248"
    INDEX 01 02:31:10
  TRACK 177 AUDIO
    TITLE "0:"
    INDEX 01 02:32:16
  TRACK 178 AUDIO
    TITLE "3:cjc153_2249"
    INDEX 01 02:32:51
  TRACK 179 AUDIO
    TITLE "0:"
    INDEX 01 02:33:68
  TRACK 180 AUDIO
    TITLE "2:cjc153_2250"
    INDEX 01 02:34:38
  TRACK 181 AUDIO
    TITLE "0:"
    INDEX 01 02:35:43
  TRACK 182 AUDIO
    TITLE "3:cjc153_2251"
    INDEX 01 02:36:00
  TRACK 183 AUDIO
    TITLE "0:"
    INDEX 01 02:37:11
